<svg width="44" height="45" viewBox="0 0 44 45" fill="none" xmlns="http://www.w3.org/2000/svg">
<path d="M22.1556 0.000771469L21.9974 0C21.2417 0 20.493 0.0393656 19.7566 0.114239C19.4147 0.148974 19.0758 0.193745 18.74 0.243918C18.7184 0.246234 18.6953 0.248549 18.6736 0.252409C9.63014 1.62947 2.38283 8.53482 0.487836 17.4008C0.483977 17.4193 0.478575 17.4371 0.475487 17.4548C0.414507 17.7443 0.362019 18.0368 0.311846 18.3301C0.299495 18.4042 0.284057 18.4776 0.272479 18.5532C0.233112 18.7995 0.202237 19.0488 0.172133 19.2981C0.156695 19.4208 0.138169 19.542 0.125047 19.6655C0.10189 19.8801 0.0872247 20.0978 0.0710149 20.3139C0.0586646 20.4722 0.043998 20.6296 0.0347353 20.7879C0.0231569 20.9855 0.0208415 21.1846 0.0154382 21.3822C0.0115788 21.5366 0.00154379 21.6902 0 21.8453C0 21.87 0.00154441 21.8947 0.00154441 21.921C0.00154441 21.9472 0 21.9743 0 22.0013C0 22.0707 0.00694721 22.1379 0.00771911 22.2074C0.0108067 22.5972 0.0239299 22.9847 0.0486305 23.3698C0.0571214 23.5011 0.0648402 23.6323 0.0756467 23.7627C0.10961 24.1888 0.153608 24.6134 0.212272 25.0325C0.216903 25.0695 0.219991 25.1074 0.225394 25.1452C0.291777 25.6083 0.376684 26.0653 0.470855 26.5192C0.492468 26.6203 0.516396 26.7199 0.538781 26.8202C0.62369 27.2015 0.719405 27.579 0.825154 27.9533C0.846767 28.0321 0.866836 28.11 0.889221 28.1872C1.02353 28.6419 1.16865 29.0896 1.32997 29.5303C1.33769 29.5512 1.34618 29.5712 1.35313 29.5921C1.50751 30.0104 1.67655 30.4211 1.85486 30.8271C1.88419 30.8943 1.91352 30.9622 1.9444 31.0286C2.33266 31.8877 2.77341 32.7182 3.26511 33.5156C3.27514 33.5318 3.28286 33.548 3.29213 33.5642C3.29135 33.5882 3.2983 33.6129 3.29676 33.6383C3.32377 33.6792 3.35156 33.7186 3.37549 33.7618C3.39865 33.7765 3.42335 33.7888 3.4465 33.8027C4.17749 34.9475 5.01113 36.0212 5.93509 37.0092C5.94126 37.0161 5.94744 37.0223 5.95361 37.0285C6.87217 38.0096 7.88026 38.9088 8.96477 39.7093C8.98098 39.7216 8.99642 39.7317 9.01262 39.744C9.34608 39.9879 9.68726 40.2234 10.0346 40.4503C10.0748 40.4758 10.1133 40.5012 10.1527 40.5267C10.8968 41.0037 11.6695 41.4406 12.4707 41.8273C12.4861 41.8351 12.5008 41.8412 12.5162 41.8482C12.8806 42.0234 13.2503 42.1863 13.6255 42.3414C13.7096 42.3762 13.7945 42.4094 13.8779 42.4433C14.2052 42.5738 14.5371 42.6957 14.8713 42.8115C14.9516 42.8401 15.0318 42.8694 15.1137 42.8956C15.9296 43.1658 16.7663 43.3881 17.62 43.561C17.7304 43.5834 17.8408 43.6027 17.9519 43.6228C18.2692 43.6814 18.588 43.7347 18.9106 43.7802C19.0403 43.798 19.17 43.8173 19.3004 43.8327C19.6447 43.8752 19.9913 43.9084 20.3394 43.9346C20.4305 43.9416 20.5208 43.9516 20.6119 43.957C21.0202 43.9825 21.4316 43.9995 21.8453 44.0025L22.0036 44.0033C34.0467 44.0033 43.9138 34.2041 43.9995 22.1587C44.0844 10.0253 34.2859 0.0872235 22.1556 0.000771469ZM20.0654 42.4997C19.7612 42.4711 19.4594 42.4348 19.1592 42.3931C19.119 42.3877 19.0797 42.3823 19.0403 42.3769C18.7393 42.3337 18.4413 42.2828 18.1449 42.2272C18.1078 42.2195 18.07 42.2133 18.0322 42.2063C17.735 42.1477 17.4402 42.0828 17.1476 42.0111C17.1129 42.0026 17.0774 41.9948 17.0411 41.9864C16.747 41.913 16.4568 41.8343 16.1673 41.7478C16.1357 41.7378 16.1025 41.7293 16.0708 41.7201C15.7806 41.6321 15.4934 41.5387 15.2078 41.4383C15.1785 41.4275 15.1484 41.4182 15.1191 41.4074C14.8327 41.3048 14.5494 41.1975 14.2684 41.0832C14.2422 41.0717 14.216 41.0616 14.1889 41.0508C13.9064 40.935 13.627 40.8115 13.3514 40.6834C13.3283 40.6726 13.3036 40.6626 13.2804 40.651C13.0025 40.5205 12.7277 40.3839 12.4576 40.2419C12.4375 40.2311 12.4167 40.221 12.3974 40.211C12.1241 40.0659 11.8555 39.9154 11.59 39.7594C11.573 39.7486 11.5545 39.7394 11.5367 39.7278C11.2704 39.5703 11.008 39.4067 10.7494 39.2369C10.7332 39.2261 10.7177 39.2176 10.7015 39.2068C10.4429 39.0354 10.1867 38.8586 9.93504 38.6757C9.92192 38.6657 9.90879 38.6572 9.89567 38.6471C9.64326 38.4634 9.39626 38.2736 9.15234 38.079C9.13922 38.069 9.12841 38.0597 9.11606 38.0505C8.87291 37.8544 8.63363 37.6529 8.39974 37.4469C8.38739 37.436 8.37658 37.4276 8.36501 37.4167C8.13189 37.2099 7.90264 36.9984 7.67957 36.7815C7.66722 36.7699 7.65641 36.7599 7.64406 36.7483C7.42252 36.5322 7.20485 36.3099 6.99181 36.0837C6.97946 36.0713 6.96865 36.0582 6.95553 36.0459C6.74635 35.8205 6.54025 35.5905 6.33956 35.3558C6.33261 35.3473 6.32566 35.3396 6.31949 35.3319C9.18476 36.6973 12.2739 37.7008 15.5212 38.2789C16.8558 39.8088 18.3834 41.2268 20.1032 42.5028C20.0908 42.502 20.0785 42.5012 20.0654 42.4997ZM4.40983 32.6951C4.0069 32.0351 3.63948 31.3504 3.31219 30.6442C3.2929 30.6032 3.27514 30.5616 3.25662 30.5199C3.11382 30.2088 2.98028 29.8923 2.85292 29.5712C2.82822 29.5087 2.80429 29.4446 2.77882 29.3813C2.65686 29.0633 2.54107 28.7422 2.43532 28.4165C2.42066 28.3709 2.40522 28.3262 2.38978 28.2799C1.89654 26.7392 1.57775 25.1197 1.46197 23.4455C1.46119 23.4385 1.46119 23.4316 1.46042 23.4254C4.04781 25.3088 6.93006 26.8488 10.0315 27.9665C10.8181 31.0409 12.2083 33.9448 14.1449 36.5692C10.6714 35.7796 7.40863 34.4766 4.44765 32.7561C4.4353 32.7344 4.42295 32.7151 4.40983 32.6951ZM1.81086 17.9542C1.85872 17.718 1.91198 17.4841 1.96678 17.251C1.98685 17.1684 2.00538 17.0843 2.02545 17.0025C2.07639 16.801 2.13197 16.6011 2.18755 16.4027C2.22074 16.2877 2.25316 16.1727 2.28866 16.0585C2.34038 15.884 2.39596 15.7119 2.4523 15.5398C2.50016 15.397 2.54956 15.2549 2.59974 15.1129C2.65145 14.967 2.70471 14.8219 2.75952 14.6775C2.77727 14.6289 2.79888 14.5818 2.81664 14.534C4.883 16.0322 7.15005 17.2943 9.57379 18.2792C9.38313 19.5011 9.2743 20.7423 9.2743 22.0013C9.2743 23.4679 9.41633 24.9129 9.67491 26.3293C6.66607 25.1521 3.88571 23.5597 1.41411 21.6277C1.43572 20.3973 1.56772 19.1947 1.79697 18.026C1.8016 18.0021 1.80546 17.9782 1.81086 17.9542ZM3.45268 13.0712C3.65106 12.6614 3.86719 12.26 4.09103 11.8655C4.18057 11.7073 4.27089 11.5498 4.36506 11.3947C4.58505 11.0304 4.81584 10.6737 5.05667 10.3248C5.174 10.1543 5.29673 9.98675 5.41946 9.8208C5.66184 9.4912 5.91116 9.167 6.17283 8.85362C6.31023 8.68843 6.45226 8.53019 6.59428 8.37041C6.80347 8.13421 7.01728 7.90419 7.2365 7.67879C7.33762 7.57459 7.43642 7.46961 7.53908 7.36849C9.09367 8.36809 10.7702 9.211 12.5409 9.87483C11.2766 12.0701 10.3696 14.4213 9.83546 16.8697C7.51824 15.9033 5.35462 14.6714 3.38707 13.214C3.41022 13.1662 3.42952 13.1176 3.45268 13.0712ZM8.83432 6.19213C9.09985 5.97136 9.36924 5.75523 9.64712 5.54682C9.80613 5.42641 9.96977 5.3114 10.1326 5.19561C10.3704 5.02734 10.6097 4.8637 10.8551 4.70469C10.9979 4.61283 11.1407 4.51943 11.2858 4.43067C11.6332 4.2184 11.9852 4.01539 12.3457 3.82319C12.4699 3.7568 12.5973 3.69428 12.7223 3.63021C13.0481 3.46503 13.3777 3.30756 13.7127 3.15936C13.7991 3.12076 13.8848 3.07908 13.972 3.0428C14.3912 2.8645 14.818 2.7024 15.2503 2.55111C15.3421 2.51869 15.4348 2.48781 15.5282 2.45693C16.4606 2.14741 17.4216 1.89963 18.4081 1.72595C18.4537 1.71823 18.4984 1.70974 18.5447 1.70202C19.0588 1.6148 19.5791 1.54379 20.1047 1.49593C17.3352 3.55225 15.045 5.97059 13.2959 8.64675C11.6425 8.04853 10.0786 7.28435 8.6205 6.37738C8.69229 6.31563 8.76253 6.25311 8.83432 6.19213ZM22.7292 16.3688C25.5188 16.7292 27.6824 19.1144 27.6824 21.9997C27.6824 24.8851 25.5188 27.2702 22.7292 27.6307V16.3688ZM16.2522 36.976C14.1156 34.428 12.5618 31.5619 11.644 28.5052C14.6953 29.4392 17.9365 29.9657 21.2981 30.0313V37.4345C19.5814 37.4005 17.8963 37.2462 16.2522 36.976ZM21.2981 38.8393V41.6243C20.0067 40.6942 18.8211 39.6838 17.7474 38.6031C18.9145 38.7382 20.0986 38.817 21.2981 38.8393ZM11.2226 26.8897C10.8698 25.2973 10.6791 23.6639 10.6791 22.0005C10.6791 20.916 10.7617 19.8446 10.9138 18.7887C14.1565 19.9419 17.6517 20.6018 21.2981 20.6775V28.6272C17.7713 28.5554 14.385 27.9487 11.2226 26.8897ZM11.1585 17.3846C11.6733 14.913 12.6027 12.5479 13.9041 10.3465C16.2391 11.079 18.7223 11.5012 21.2981 11.5676V19.2726C17.7319 19.1962 14.3186 18.5347 11.1585 17.3846ZM14.6845 9.11143C16.3912 6.58425 18.6157 4.30485 21.2973 2.37357V10.1504C19.0009 10.0879 16.781 9.73512 14.6845 9.11143ZM22.7292 29.0487C26.2953 28.6828 29.0865 25.6608 29.0865 21.9997C29.0865 18.3386 26.2953 15.3167 22.7292 14.9508V8.88835C29.6415 9.27044 35.1528 14.994 35.1528 22.0005C35.1528 29.0062 29.6415 34.7298 22.7292 35.1119V29.0487ZM22.7292 42.5769V36.5129C30.4157 36.1292 36.5569 29.7796 36.5569 22.0005C36.5569 14.2198 30.4157 7.86945 22.7292 7.48582V1.42337C33.8136 1.81318 42.6733 10.9848 42.5946 22.1456C42.5166 33.1775 33.6715 42.1917 22.7292 42.5769Z" fill="white"/>
</svg>
